<?xml version="1.0" encoding="utf-8"?>
<!-- Generator: Adobe Illustrator 28.1.0, SVG Export Plug-In . SVG Version: 6.00 Build 0)  -->
<svg version="1.1" id="Layer_1" xmlns="http://www.w3.org/2000/svg" xmlns:xlink="http://www.w3.org/1999/xlink" x="0px" y="0px"
	 viewBox="0 0 600 390" style="enable-background:new 0 0 600 390;" xml:space="preserve">
<style type="text/css">
	.st0{fill:#FFBD00;}
</style>
<g>
	<g>
		<path d="M280.86,1.83h-28.25l-46.24,154.13L158.95,1.83h-11.66h-16.59h-8.69v133.8c0,20.1-19.42,35.68-47.57,35.68
			c-28.15,0-47.58-14.76-47.58-35.68V1.83H1.6v129.34c0,37.96,26.76,63.93,72.85,63.93c46.09,0,72.85-26.26,72.85-63.93v-78
			l45.85,141.92h26.76l46.83-152.2l43.33,140.81l8.89-54.9L280.86,1.83z"/>
		<g>
			<path d="M335.59,196.08L367.03,1.88h72.49l22.71,79.48c2.91,10.19,4.07,19.8,4.37,22.42h1.75c0.29-8.44,1.45-14.27,3.78-22.42
				l22.71-79.48h71.91l31.73,194.19h-67.83l-8.73-87.05c-0.58-6.69-1.17-11.06-1.17-19.21h-1.17c-0.87,4.95-2.62,12.52-3.79,16.31
				l-28.82,89.96h-41.34l-25.91-85.01c-2.04-6.99-3.49-13.1-3.78-21.25h-2.04c0,3.78,0,11.35-0.29,15.14l-9.61,91.13H335.59z"/>
		</g>
	</g>
	<g>
		<path class="st0" d="M313.75,277.81l0.6-1.78c8.18-24.04,1.35-32.03-22.77-32.03H1.67v43.24l293.49-10.69
			c11.28-0.52,18.07,2.76,13.59,15c0,0-1.79,5.23-2.99,8.59c-0.14,0.38-0.21,0.77-0.28,1.15c-0.12,0.31-1.95,5.42,3.5,9.99
			c7.18,6.01,74.76,7.19,112.58,3.53c22.68-1.66,45.97-4.5,69.57-7.96c35.42-5.18,71.76-10.67,107.47-15.19v-40.33
			C502.39,266.75,403.57,287.29,313.75,277.81z"/>
		<path class="st0" d="M474.35,343.13c0,0-0.43,0.05-1.04,0.11c-5.46,0.56-32.79,3.37-38.44,3.95c-0.65,0.07-1.11,0.11-1.11,0.11
			c-38.87,4.16-127.84,5.55-136.73-2.89c-2.86-2.71-3.24-6.59-3.01-9.61c-0.09-1.93,0.24-4,1.14-6.14l4.48-10.6
			c1.5-4.18-1.71-8.36-6.12-8.14L1.67,323.26v42.4l286.54-23.57c-0.44,1.27-0.75,2.16-0.89,2.68c-1.14,3.19-1.92,6.05-2.39,8.68h0
			c0,0-5.32,14.72,1.51,22.43c14.76,16.64,126.75,9.27,160.12,7.58c2.15-0.09,4.3-0.17,6.44-0.28c0.22-0.01,0.49-0.02,0.69-0.02
			c0.11,0,0.11-0.02,0.2-0.02c49.28-2.42,97.6-7.94,144.72-11.95v-45.11c-41.09,5.45-83,12.15-124.65,17.09
			C474.07,343.16,474.25,343.14,474.35,343.13z"/>
	</g>
</g>
</svg>
