<?xml version="1.0" encoding="UTF-8"?>
<svg xmlns="http://www.w3.org/2000/svg" version="1.1" viewBox="0 0 600 220">
  <defs>
    <style>
      .cls-1 {
        fill: #ffbd00;
      }
    </style>
  </defs>
  <!-- Generator: Adobe Illustrator 28.6.0, SVG Export Plug-In . SVG Version: 1.2.0 Build 709)  -->
  <g>
    <g id="Layer_1">
      <g>
        <g>
          <path class="cls-1" d="M308.2,156.7l.3-1c4.6-13.6.8-18.1-12.9-18.1H1.9v29.2l295.8-10.8c6.4-.3,10.2,1.6,7.7,8.5,0,0-1,3-1.7,4.9,0,.2-.1.4-.2.6,0,.2-1.1,3.1,2,5.7,4.1,3.4,42.3,4.1,63.8,2,12.9-.9,26-2.6,39.4-4.5,69.6-10.2,145.7-22.7,190.4-6v-29.6c-87-18.4-197.5,29-290.9,19.1Z"/>
          <path class="cls-1" d="M398.9,193.7c0,0,.2,0,.2,0,0,0-.2,0-.6,0-3.1.3-18.6,1.9-21.8,2.2-.4,0-.6,0-.6,0-22,2.4-72.4,3.1-77.4-1.6-1.6-1.5-1.8-3.7-1.7-5.4,0-1.1.1-2.3.6-3.5l2.5-6c.9-2.4-1-4.7-3.5-4.6L1.9,188.3v28.8l291.9-24c-.2.7-.4,1.2-.5,1.5-.6,1.8-1.1,3.4-1.4,4.9h0s-3,8.3.9,12.7c8.4,9.4,71.8,5.2,90.7,4.3,1.2,0,2.4-.1,3.6-.2.1,0,.3,0,.4,0s0,0,.1,0c75.4-3.7,146.9-20.2,211.5,1.9v-29.8c-56.7-20.7-129.1-3.1-200.2,5.3Z"/>
        </g>
        <path d="M1.1,112.4L12.3,43.2h25.8l8.1,28.3c1,3.6,1.5,7.1,1.6,8h.6c0-3,.5-5.1,1.3-8l8.1-28.3h25.6l11.3,69.2h-24.2l-3.1-31c-.2-2.4-.4-3.9-.4-6.8h-.4c-.3,1.8-.9,4.5-1.3,5.8l-10.3,32.1h-14.7l-9.2-30.3c-.7-2.5-1.2-4.7-1.4-7.6h-.7c0,1.3,0,4.1-.1,5.4l-3.4,32.5H1.1Z"/>
        <path d="M103.3,112.4V43.2h25.1v69.2h-25.1Z"/>
        <path d="M138.1,112.4V43.2h25.1v46.9h21.2l7.6,22.3h-53.9Z"/>
        <path d="M176.9,43.2h26.1l7.6,32.8c.5,2.4,1.1,4.5,1.1,8.5h.6c.2-4.4.8-8,1.8-11.6l7.6-29.7h19.3l8,31.6c.6,2.5,1.2,7.1,1.4,9.8h.5c.1-4.5.7-7.5,1.6-11.1l7.2-30.2h26.1l-24.4,69.2h-21.9l-6.5-28.2c-.6-2.8-1.1-6-1.4-9.4h-.8c-.1,2.3-.5,7.3-1,9.4l-7.2,28.2h-21.4l-24.3-69.2Z"/>
        <path d="M300.1,103.8l-1.9,8.6h-26.6l24-69.2h27.8l24.7,69.2h-26.7l-2.3-8.6h-19.1ZM310.3,66.3h-.9c-.1,2.9-.5,5.3-1.1,7.8l-3.4,13.3h10.1l-3.2-13.3c-.6-2.7-1-5.3-1.4-7.8Z"/>
        <path d="M347.8,43.2h24.9v40.2c0,2.1.2,5,2.2,7.1,1.4,1.4,3,1.9,5,1.9s4.1-.7,5.1-1.7c1.9-1.9,1.9-5.5,1.9-7.3v-40.2h25v42.5c0,5.4-1,13.3-7.3,19.7-7.1,7.3-17,8.6-24.7,8.6s-17.9-.6-25.7-9.1c-5.4-5.8-6.3-12.3-6.3-17.4v-44.2Z"/>
        <path d="M420.3,112.4V43.2h24.1v21.5c0,3.1-.1,5.6-.5,8.7h.5c1.5-3.9,2.4-5.5,3.6-7.8l11.9-22.4h27.2l-21.6,33.9,23.9,35.3h-29.1l-12.7-22.2c-1.2-2.1-2.4-4.6-3.3-6.6h-.5c.4,2.4.5,4.3.5,6.5v22.3h-24.1Z"/>
        <path d="M496,112.4V43.2h46.7v19h-21.6v6.4h19.6v18.2h-19.6v6.6h22.2v19h-47.3Z"/>
        <path d="M551.8,112.4V43.2h46.7v19h-21.6v6.4h19.6v18.2h-19.6v6.6h22.2v19h-47.3Z"/>
        <g>
          <path d="M32.9,1.3v18.5c0,5.4-3.8,9.2-10.4,9.2s-10.4-3.7-10.4-9.2V1.3h3.6v19.2c0,3,2.8,5.1,6.8,5.1s6.8-2.2,6.8-5.1V1.3h3.6Z"/>
          <path d="M63.7,29h-4l-14.7-22v22h-3.6V1.3h4l14.7,22V1.3h3.6v27.7Z"/>
          <path d="M72.5,29V1.3h3.6v27.7h-3.6Z"/>
          <path d="M107.5,1.3l-10.7,27.7h-3.6L82.5,1.3h4.1l8.4,22.8L103.4,1.3s4.1,0,4.1,0Z"/>
          <path d="M132.7,25.6v3.4h-18.8V1.3h18.4v3.4h-14.8v8.7h13.9v3.4h-13.9v8.7h15.2Z"/>
          <path d="M151.3,18.6h-7.5v10.4h-3.6V1.3h12c3.5,0,8.9,2.2,8.9,8.5s-3.1,7.4-6.2,8.3l6.7,10.9h-4.1l-6.2-10.4ZM143.8,15.2h9.1c1.8,0,4.6-1.9,4.6-5.3s-2.7-5.1-4.6-5.1h-9.1v10.4h0Z"/>
          <path d="M189.7,21.1c0,5-3.6,7.9-10.9,7.9s-11.1-4.9-11.1-8.7h4.1c0,2,1.2,5.1,7.3,5.1s6.9-2.3,6.9-4c0-2.4-2.1-3.2-8.6-5.4-4.9-1.7-8.6-2.9-8.6-7.6s4.3-7.2,10.1-7.2c8.6,0,10.3,5.4,10.3,8.2h-3.6c0-1.3-1-4.8-6.5-4.8s-6.7,1.8-6.7,3.7,3,3.4,8.2,4.9c4.6,1.4,9.3,3,9.3,7.8Z"/>
          <path d="M197.3,29V1.3h3.6v27.7h-3.6Z"/>
          <path d="M230.1,1.3v3.4h-9.6v24.3h-3.6V4.7h-9.6V1.3h22.8Z"/>
          <path d="M248.9,16v13h-3.6v-13l-11.3-14.7h4.7l8.4,11.2,8.4-11.2h4.7l-11.3,14.7Z"/>
          <path d="M308.1,15.2c0,7.6-5.3,13.9-13.2,13.9s-13.2-6.2-13.2-13.9,5.3-13.9,13.2-13.9,13.2,6.2,13.2,13.9ZM304.3,15.2c0-7-4.5-10.4-9.4-10.4s-9.4,3.5-9.4,10.4,4.5,10.4,9.4,10.4,9.4-3.5,9.4-10.4Z"/>
          <path d="M319.3,4.7v8.7h14.4v3.4h-14.4v12.1h-3.6V1.3h18.8v3.4h-15.2Z"/>
          <path d="M394.9,1.3l-8.9,27.7h-3.8l-6.7-21.8-6.7,21.8h-3.8l-9-27.7h4l6.8,22.1,6.6-22.1h4l6.6,22.1,6.8-22.1s4,0,4,0Z"/>
          <path d="M401.5,29V1.3h3.6v27.7h-3.6Z"/>
          <path d="M434.6,21.1c0,5-3.6,7.9-10.9,7.9s-11.1-4.9-11.1-8.7h4c0,2,1.2,5.1,7.3,5.1s6.9-2.3,6.9-4c0-2.4-2.1-3.2-8.6-5.4-4.9-1.7-8.6-2.9-8.6-7.6s4.3-7.2,10.1-7.2c8.6,0,10.3,5.4,10.3,8.2h-3.6c0-1.3-1-4.8-6.5-4.8s-6.7,1.8-6.7,3.7,3,3.4,8.2,4.9c4.6,1.4,9.3,3,9.3,7.8Z"/>
          <path d="M465,23.5c-2.3,3.3-6,5.5-10.7,5.5-7.9,0-13.2-6.2-13.2-13.9s5.3-13.9,13.2-13.9,8.4,2.2,10.7,5.5l-3.4,1.7c-1.7-2.5-4.5-3.8-7.3-3.8-4.8,0-9.2,3.5-9.2,10.4s4.4,10.4,9.2,10.4,5.6-1.3,7.3-3.8l3.4,1.7Z"/>
          <path d="M496.7,15.2c0,7.6-5.3,13.9-13.2,13.9s-13.2-6.2-13.2-13.9,5.3-13.9,13.2-13.9c7.9,0,13.2,6.2,13.2,13.9ZM492.9,15.2c0-7-4.5-10.4-9.4-10.4s-9.4,3.5-9.4,10.4,4.5,10.4,9.4,10.4,9.4-3.5,9.4-10.4Z"/>
          <path d="M526.6,29h-4l-14.7-22v22h-3.6V1.3h4l14.7,22V1.3h3.6v27.7Z"/>
          <path d="M556.1,21.1c0,5-3.6,7.9-10.9,7.9s-11.1-4.9-11.1-8.7h4c0,2,1.2,5.1,7.3,5.1s6.9-2.3,6.9-4c0-2.4-2.1-3.2-8.6-5.4-4.9-1.7-8.6-2.9-8.6-7.6s4.3-7.2,10.1-7.2c8.6,0,10.3,5.4,10.3,8.2h-3.6c0-1.3-1-4.8-6.5-4.8s-6.7,1.8-6.7,3.7,3,3.4,8.2,4.9c4.6,1.4,9.3,3,9.3,7.8Z"/>
          <path d="M563.8,29V1.3h3.6v27.7h-3.6Z"/>
          <path d="M594.4,29l-14.7-22v22h-3.6V1.3h4l14.7,22V1.3h3.6v27.7h-4Z"/>
        </g>
      </g>
    </g>
  </g>
</svg>