<?xml version="1.0" encoding="utf-8"?>
<!-- Generator: Adobe Illustrator 28.1.0, SVG Export Plug-In . SVG Version: 6.00 Build 0)  -->
<svg version="1.1" id="Logos_for_Output" xmlns="http://www.w3.org/2000/svg" xmlns:xlink="http://www.w3.org/1999/xlink" x="0px"
	 y="0px" viewBox="0 0 600 482" style="enable-background:new 0 0 600 482;" xml:space="preserve">
<style type="text/css">
	.st0{fill:#FFFFFF;}
	.st1{fill:#FFBD00;}
</style>
<g>
	<g>
		<g>
			<path class="st0" d="M66.97,226.87v59.99H53.13v-31.83l-12,31.83H27.29l-12-31.83v31.83H1.44v-59.99h17.07l15.69,41.62
				l15.69-41.62H66.97z"/>
			<path class="st0" d="M88.78,286.85v-59.99h13.85v59.99H88.78z"/>
			<path class="st0" d="M169.82,274.86v12h-45.38v-59.99h13.85v47.99H169.82z"/>
			<path class="st0" d="M266.97,226.87l-19.38,59.99h-14.31l-13.15-42.74l-13.15,42.74h-14.31l-19.38-59.99h15.23l11.31,37.69
				l11.3-37.69h18l11.31,37.69l11.31-37.69H266.97z"/>
			<path class="st0" d="M313.65,276.97h-22.38l-3.58,9.89h-15.23l23.07-59.99h13.84l23.07,59.99h-15.23L313.65,276.97z
				 M309.31,264.97l-6.85-18.96l-6.86,18.96H309.31z"/>
			<path class="st0" d="M397.85,226.87v40.15c0,11.69-11.54,19.84-25.84,19.84s-25.84-8.06-25.84-19.84v-40.15h13.84v37.38
				c0,6.5,3.26,11.08,12,11.08c8.74,0,12-4.84,12-11.08v-37.38H397.85z"/>
			<path class="st0" d="M437.47,261.2l-4.69,4.66v21h-13.85v-59.99h13.85v21.56l21.29-21.56h17.94l-24.76,24.62l26.61,35.37h-18.32
				L437.47,261.2z"/>
			<path class="st0" d="M533.92,274.86v12h-43.07v-59.99H533v12H504.7v12h26.46v12H504.7v12H533.92z"/>
			<path class="st0" d="M597.18,274.86v12H554.1v-59.99h42.15v12h-28.31v12h26.46v12h-26.46v12H597.18z"/>
		</g>
	</g>
	<g>
		<path class="st0" d="M280.68,1.58h-28.24l-46.23,154.09L158.8,1.58h-11.66h-16.58h-8.68v133.77c0,20.09-19.42,35.67-47.56,35.67
			c-28.15,0-47.56-14.75-47.56-35.67V1.58H1.48v129.31c0,37.95,26.75,63.91,72.83,63.91c46.08,0,72.83-26.26,72.83-63.91V52.91
			l45.84,141.89h26.75l46.82-152.17l43.32,140.78l8.89-54.89L280.68,1.58z"/>
		<g>
			<path class="st0" d="M335.4,195.79L366.84,1.64h72.48l22.71,79.46c2.91,10.19,4.07,19.79,4.37,22.41h1.75
				c0.29-8.44,1.45-14.26,3.78-22.41l22.71-79.46h71.89l31.73,194.15h-67.82l-8.73-87.03c-0.58-6.69-1.17-11.06-1.17-19.21h-1.17
				c-0.87,4.95-2.62,12.52-3.78,16.3l-28.82,89.94h-41.33l-25.91-84.99c-2.04-6.98-3.49-13.1-3.78-21.25h-2.04
				c0,3.78,0,11.35-0.29,15.14l-9.61,91.11H335.4z"/>
		</g>
	</g>
	<path class="st1" d="M295.03,370.44c11.28-0.52,18.07,2.76,13.59,15c0,0-1.79,5.23-2.99,8.59c-0.14,0.38-0.21,0.77-0.28,1.15
		c-0.12,0.31-1.95,5.42,3.5,9.99c7.18,6.01,74.76,7.19,112.58,3.53c22.68-1.66,45.97-4.5,69.56-7.95
		c35.41-5.18,71.75-10.67,107.46-15.19v-40.32c-96.21,15.41-195.01,35.95-284.83,26.47l0.6-1.78c8.18-24.04,1.35-32.03-22.77-32.03
		H1.55v43.24L295.03,370.44z"/>
	<path class="st1" d="M473.8,437.05c0.12-0.01,0.3-0.02,0.4-0.03c0,0-0.43,0.05-1.04,0.11c-5.46,0.56-32.78,3.37-38.43,3.95
		c-0.65,0.07-1.11,0.11-1.11,0.11c-38.87,4.16-127.84,5.55-136.73-2.89c-2.86-2.71-3.24-6.59-3.01-9.61c-0.09-1.93,0.24-4,1.14-6.14
		l4.48-10.6c1.5-4.18-1.71-8.36-6.12-8.14L1.55,417.15v42.4l286.53-23.57c-0.44,1.27-0.75,2.16-0.89,2.68
		c-1.14,3.19-1.92,6.05-2.39,8.68h0c0,0-5.32,14.72,1.51,22.42c14.76,16.64,126.74,9.27,160.11,7.57c2.15-0.09,4.3-0.17,6.44-0.28
		c0.22-0.01,0.49-0.02,0.69-0.02c0.11,0,0.11-0.02,0.2-0.02c49.28-2.42,97.6-7.93,144.71-11.95v-45.1
		C557.35,425.4,515.45,432.1,473.8,437.05z"/>
</g>
</svg>
